<svg xmlns="http://www.w3.org/2000/svg" width="89.253" height="87.296" viewBox="0 0 89.253 87.296">
    <defs>
        <style>
            .a {
                fill: #fafafa;
                stroke: #d9d9d9;
            }
        </style>
    </defs>
    <g transform="translate(-60.409 -85.852)">
        <path class="a"
            d="M115.592,171.782l8.465-19.924,20.263,19,4.635-4.95-20.27-19,19.345-9.735L97.48,121.753l18.112,50.029ZM102.36,102.1a4.409,4.409,0,1,1-8.817,0V90.761a4.409,4.409,0,1,1,8.817,0V102.1Zm-17.232,3.641a4.407,4.407,0,0,1-6.232,6.232l-8.018-8.018a4.4,4.4,0,1,1,6.232-6.226Zm24.056-1.667a4.411,4.411,0,0,0,6.239,6.239l8.006-8.018a4.4,4.4,0,0,0-6.226-6.232l-8.018,8.012Zm-32.527,15.37a4.409,4.409,0,0,1,0,8.817l-11.339-.006a4.406,4.406,0,1,1,0-8.811Zm5.3,15.333a4.411,4.411,0,0,1,6.239,6.239l-8.018,8.012a4.407,4.407,0,0,1-6.232-6.232l8.012-8.018Z"
            transform="translate(0)" />
    </g>
</svg>
