<svg width="16" height="16" viewBox="0 0 16 16" fill="none" xmlns="http://www.w3.org/2000/svg">
    <g stroke="none" stroke-width="1" fill="none" fill-rule="evenodd" stroke-linecap="round">
        <g transform="translate(-1062.000000, -250.000000)" stroke="currentColor">
            <g transform="translate(1051.000000, 241.000000)">
                <g transform="translate(12.000000, 10.000000)">
                    <path d="M12,10.15 L12,13.3 C12,13.68661 11.664225,14 11.25,14 L8.8125,14" stroke-linejoin="round">
                    </path>
                    <path
                        d="M12,4.2 L12,0.7 C12,0.3134005 11.664225,0 11.25,0 L0.75,0 C0.33578625,0 0,0.3134005 0,0.7 L0,13.3 C0,13.68661 0.33578625,14 0.75,14 L3,14"
                        stroke-linejoin="round"></path>
                    <line x1="3" y1="4.2" x2="8.25" y2="4.2"></line>
                    <line x1="5.625" y1="14" x2="12" y2="6.65"></line>
                    <line x1="3" y1="7" x2="6" y2="7"></line>
                </g>
            </g>
        </g>
    </g>
</svg>
