<!--
 * @Description: File Content
 * @Date: 2023-07-28 17:12:12
 * @Author: tanfengqiao
 * @LastEditTime: 2023-07-28 17:12:49
 * @LastEditors: tanfengqiao
-->
<svg xmlns="http://www.w3.org/2000/svg" width="20" height="20" viewBox="0 0 20 20">
  <path fill="none" d="M0,0H20V20H0Z" />
  <path fill="currentColor"
    d="M16.334,12.212l.946.568a.394.394,0,0,1,0,.675l-6.9,4.142a.787.787,0,0,1-.81,0l-6.9-4.142a.394.394,0,0,1,0-.675l.946-.568L9.972,16.03Zm0-3.7.946.568a.394.394,0,0,1,0,.675L9.972,14.141,2.663,9.756a.394.394,0,0,1,0-.675l.946-.568,6.363,3.818ZM10.377,1.278l6.9,4.142a.394.394,0,0,1,0,.675L9.972,10.481,2.663,6.1a.394.394,0,0,1,0-.675l6.9-4.142A.787.787,0,0,1,10.377,1.278Zm-.4,1.593L5.16,5.758,9.972,8.645l4.812-2.887Z"
    transform="translate(0.028 0.562)" />
</svg>
