<svg xmlns="http://www.w3.org/2000/svg" width="20" height="20" viewBox="0 0 20 20">
  <defs>
    <style>
      .a {
        fill: none;
      }

      .b {
        fill: currentColor;
      }
    </style>
  </defs>
  <path class="a" d="M0,0H20V20H0Z" />
  <path class="b"
    d="M17.148,12.861l1,.6a.417.417,0,0,1,0,.715l-7.308,4.385a.833.833,0,0,1-.858,0L2.674,14.177a.417.417,0,0,1,0-.715l1-.6L10.412,16.9Zm0-3.917,1,.6a.417.417,0,0,1,0,.715L10.412,14.9,2.674,10.26a.417.417,0,0,1,0-.715l1-.6,6.736,4.042ZM10.84,1.285,18.149,5.67a.417.417,0,0,1,0,.715l-7.737,4.643L2.674,6.385a.417.417,0,0,1,0-.715L9.983,1.285a.833.833,0,0,1,.858,0Zm-.428,1.686L5.318,6.028l5.094,3.057,5.094-3.057Z"
    transform="translate(-0.412 -0.194)" />
</svg>
