<svg xmlns="http://www.w3.org/2000/svg" width="20" height="20" viewBox="0 0 20 20">
  <defs>
    <style>
      .a {
        fill: none;
      }

      .b {
        fill: currentColor;
      }
    </style>
  </defs>
  <path class="a" d="M0,0H20V20H0Z" />
  <path class="b"
    d="M4.667,10.917c0,.261.384.715,1.275,1.161A10.554,10.554,0,0,0,10.5,13a10.554,10.554,0,0,0,4.558-.923c.891-.446,1.275-.9,1.275-1.161V9.108A11.469,11.469,0,0,1,10.5,10.5,11.477,11.477,0,0,1,4.667,9.108Zm11.667,2.358A11.469,11.469,0,0,1,10.5,14.667a11.477,11.477,0,0,1-5.833-1.392v1.809c0,.261.384.715,1.275,1.161a10.554,10.554,0,0,0,4.558.922,10.554,10.554,0,0,0,4.558-.922c.891-.446,1.275-.9,1.275-1.161ZM3,15.083V6.75C3,4.679,6.358,3,10.5,3S18,4.679,18,6.75v8.333c0,2.071-3.358,3.75-7.5,3.75S3,17.154,3,15.083Zm7.5-6.25a10.554,10.554,0,0,0,4.558-.923c.891-.446,1.275-.9,1.275-1.161s-.384-.715-1.275-1.161A10.554,10.554,0,0,0,10.5,4.667a10.554,10.554,0,0,0-4.558.923c-.891.446-1.275.9-1.275,1.161s.384.715,1.275,1.161A10.554,10.554,0,0,0,10.5,8.833Z"
    transform="translate(-0.5 -0.5)" />
</svg>
