<svg xmlns="http://www.w3.org/2000/svg" width="20" height="20" viewBox="0 0 20 20">
  <defs>
    <style>
      .a {
        fill: none;
      }

      .b {
        fill: currentColor;
      }
    </style>
  </defs>
  <path class="a" d="M0,0H20V20H0Z" />
  <path class="b"
    d="M11.566,10.4l2.351,3.359H11.9l-1.344-1.919L9.214,13.757H7.2L9.55,10.4,7.2,7.039H9.214l1.344,1.919L11.9,7.039h1.176V3.68H4.68V17.116H16.436V7.039H13.917ZM3,2.833A.836.836,0,0,1,3.839,2H13.917l4.2,4.2v11.75a.84.84,0,0,1-.834.846H3.834A.84.84,0,0,1,3,17.962Z"
    transform="translate(-0.5 0)" />
</svg>
