<svg xmlns="http://www.w3.org/2000/svg" width="20" height="20" viewBox="0 0 20 20">
  <defs>
    <style>
      .a {
        fill: none;
      }

      .b {
        fill: currentColor;
      }
    </style>
  </defs>
  <path class="a" d="M0,0H20V20H0Z" />
  <path class="b"
    d="M.826,0A.827.827,0,0,0,0,.826L0,11.469a.827.827,0,0,0,.826.825H4.1v3.275a.826.826,0,0,0,.825.825h3.27l1.639,0,5.732,0a.828.828,0,0,0,.827-.825V4.926a.827.827,0,0,0-.827-.826H12.3V.826A.827.827,0,0,0,11.469,0ZM1.64,1.639h9.016V4.1H4.922a.826.826,0,0,0-.825.826v5.729H1.642Zm13.113,4.1v9.016H5.739V12.3l5.731,0a.827.827,0,0,0,.826-.825V5.739Zm-9.017,0h4.92v4.916H5.738Z"
    transform="translate(18.196 18.196) rotate(180)" />
</svg>
