<svg xmlns="http://www.w3.org/2000/svg" width="20" height="20" viewBox="0 0 20 20">
    <g transform="translate(-8271 -6055)">
        <path fill="none" d="M0,0H20V20H0Z" transform="translate(8271 6057)" />
        <path fill="currentColor"
            d="M18.111,3A.889.889,0,0,1,19,3.889V18.111a.889.889,0,0,1-.889.889H3.889A.889.889,0,0,1,3,18.111V3.889A.889.889,0,0,1,3.889,3Zm-8,8.889H4.778v5.333h5.333Zm1.778,5.333h5.333V4.778H11.889ZM10.111,4.778H4.778v5.333h5.333Z"
            transform="translate(8270 6056)" />
    </g>
</svg>
