<svg xmlns="http://www.w3.org/2000/svg" width="20" height="20" viewBox="0 0 20 20">
    <path
        d="M2.049,10.844H3.667a6.433,6.433,0,0,0,12.764,0h1.618a8.04,8.04,0,0,1-16,0Zm0-1.608a8.04,8.04,0,0,1,16,0H16.431a6.433,6.433,0,0,0-12.764,0Z"
        transform="translate(-0.048,1)" />
    <path
        d="M-9645-6203.6a1.4,1.4,0,0,1,1.4-1.4,1.4,1.4,0,0,1,1.4,1.4,1.4,1.4,0,0,1-1.4,1.4A1.4,1.4,0,0,1-9645-6203.6Zm-3.5,0a1.4,1.4,0,0,1,1.4-1.4,1.4,1.4,0,0,1,1.4,1.4,1.4,1.4,0,0,1-1.4,1.4A1.4,1.4,0,0,1-9648.5-6203.6Zm-3.5,0a1.4,1.4,0,0,1,1.4-1.4,1.4,1.4,0,0,1,1.4,1.4,1.4,1.4,0,0,1-1.4,1.4A1.4,1.4,0,0,1-9652-6203.6Z"
        transform="translate(9657 6214.999)" />
</svg>
