<svg xmlns="http://www.w3.org/2000/svg" width="20" height="20" viewBox="0 0 20 20">
  <path fill="none" d="M0,0H20V20H0Z" />
  <path fill="currentColor"
    d="M7.106,3A6.026,6.026,0,0,1,13.03,7.928a6.025,6.025,0,0,1-11.849,0A6.026,6.026,0,0,1,7.106,3Zm0,8.762a4.931,4.931,0,0,0,4.807-3.833,4.93,4.93,0,0,0-9.613,0A4.931,4.931,0,0,0,7.106,11.762Zm0-1.369A2.464,2.464,0,1,1,9.57,7.928,2.464,2.464,0,0,1,7.106,10.393Zm0-1.1A1.369,1.369,0,1,0,5.737,7.928,1.369,1.369,0,0,0,7.106,9.3Z"
    transform="translate(4.895 4.072)" />
  <path fill="currentColor"
    d="M6.8,3V4.6H3.6V7.8H2V3ZM2,17.4V12.6H3.6v3.2H6.8v1.6Zm16,0H13.2V15.8h3.2V12.6H18Zm0-9.6H16.4V4.6H13.2V3H18Z"
    transform="translate(2 2)" />
</svg>
