<!--
 * @Description: File Content
 * @Date: 2023-07-27 17:09:01
 * @Author: tanfengqiao
 * @LastEditTime: 2023-07-27 17:09:46
 * @LastEditors: tanfengqiao
-->
<svg xmlns="http://www.w3.org/2000/svg" width="20" height="20" viewBox="0 0 20 20">
  <path fill="none" d="M0,0H20V20H0Z" />
  <path fill="currentColor"
    d="M10.34,13.267,7.191,11.549a3,3,0,1,1,0-4.1L10.34,5.733a3,3,0,1,1,.719,1.316L7.91,8.767a3.024,3.024,0,0,1,0,1.466l3.149,1.718a2.989,2.989,0,1,1-.719,1.316ZM5,11A1.5,1.5,0,1,0,3.5,9.5,1.5,1.5,0,0,0,5,11Zm8.25-4.5A1.5,1.5,0,1,0,11.75,5,1.5,1.5,0,0,0,13.25,6.5Zm0,9a1.5,1.5,0,1,0-1.5-1.5A1.5,1.5,0,0,0,13.25,15.5Z"
    transform="translate(0.875 0.5)" />
</svg>
