<!--
 * @Description: File Content
 * @Date: 2023-07-28 17:14:59
 * @Author: tanfengqiao
 * @LastEditTime: 2023-07-28 17:15:27
 * @LastEditors: tanfengqiao
-->
<svg xmlns="http://www.w3.org/2000/svg" width="20" height="20" viewBox="0 0 20 20">
  <path fill="none" d="M0,0H20V20H0Z" />
  <path fill="currentColor"
    d="M6,6V2.8A.8.8,0,0,1,6.8,2H17.2a.8.8,0,0,1,.8.8V13.2a.8.8,0,0,1-.8.8H14v3.194a.8.8,0,0,1-.806.806H2.806A.8.8,0,0,1,2,17.194L2,6.806A.805.805,0,0,1,2.808,6ZM7.6,6h5.594A.8.8,0,0,1,14,6.806V12.4h2.4V3.6H7.6Zm-4,1.6,0,8.8h8.8V7.6Z" />
</svg>
