<!--
 * @Description: File Content
 * @Date: 2023-07-27 17:01:58
 * @Author: tanfengqiao
 * @LastEditTime: 2023-07-27 17:02:44
 * @LastEditors: tanfengqiao
-->
<svg xmlns="http://www.w3.org/2000/svg" width="20" height="20" viewBox="0 0 20 20">
  <path fill="none" d="M0,0H20V20H0Z" />
  <path fill="currentColor"
    d="M14952.1-4364.6a3.2,3.2,0,0,1-3.889-.5,3.2,3.2,0,0,1,0-4.526,3.208,3.208,0,0,1,4.526,0,3.206,3.206,0,0,1,.5,3.892l1.768,1.768-1.133,1.13Zm-2.755-3.888a1.6,1.6,0,0,0,0,2.263,1.6,1.6,0,0,0,2.259,0,1.6,1.6,0,0,0,0-2.263,1.588,1.588,0,0,0-1.13-.47A1.587,1.587,0,0,0,14949.345-4368.49Zm-9.346,5.656v-1.667h8v1.667Zm0-4.166v-1.667h5V-4367Zm0-4.166v-1.667h9v1.667Zm0-4.167V-4377h15v1.666Z"
    transform="translate(-14937.499 4379.917)" />
</svg>
