<!--
 * @Description: File Content
 * @Date: 2023-07-27 10:00:00
 * @Author: tanfengqiao
 * @LastEditTime: 2023-07-27 10:01:20
 * @LastEditors: tanfengqiao
-->
<svg xmlns="http://www.w3.org/2000/svg" width="20" height="20" viewBox="0 0 20 20">
  <path fill="none" d="M0,0H20V20H0Z" />
  <path fill="currentColor"
    d="M12.6,3.6h-8V16.4H15.8V6.8H12.6ZM3,2.793A.8.8,0,0,1,3.8,2h9.6l4,4V17.194a.8.8,0,0,1-.795.806H3.795A.8.8,0,0,1,3,17.207Zm8.423,9.164a3.2,3.2,0,1,1,1.131-1.131l1.768,1.768-1.131,1.131Zm-.494-1.626a1.6,1.6,0,1,0-2.263,0A1.6,1.6,0,0,0,10.929,10.331Z"
    transform="translate(-0.2)" />
</svg>
