<!--
 * @Description: File Content
 * @Date: 2023-07-28 17:16:06
 * @Author: tanfengqiao
 * @LastEditTime: 2023-07-28 17:17:18
 * @LastEditors: tanfengqiao
-->
<svg xmlns="http://www.w3.org/2000/svg" width="20" height="20" viewBox="0 0 20 20">
  <defs>
    <style>
      .c {
        fill: #b2b2b2;
      }
    </style>
  </defs>
  <path fill="none" d="M0,0H20V20H0Z" />
  <g transform="translate(1.4 1.4)">
    <path fill="currentColor"
      d="M4.256,4.256V13.05H13.05V4.256ZM3.628,3h10.05a.628.628,0,0,1,.628.628v10.05a.628.628,0,0,1-.628.628H3.628A.628.628,0,0,1,3,13.678V3.628A.628.628,0,0,1,3.628,3Z"
      transform="translate(-2 -2)" />
    <path class="c" d="M15095.678-5435.694h-9.177v-1.254h8.548v-8.552h1.258v9.181A.628.628,0,0,1,15095.678-5435.694Z"
      transform="translate(-15082 5449.999)" />
    <path class="c" d="M15095.678-5435.694h-9.177v-1.254h8.548v-8.552h1.258v9.181A.628.628,0,0,1,15095.678-5435.694Z"
      transform="translate(-15080 5451.999)" />
  </g>
</svg>
