<svg xmlns="http://www.w3.org/2000/svg" width="20" height="20" viewBox="0 0 20 20">
    <defs>
        <style>
            .a {
                fill: none;
            }

            .b {
                fill: #101010;
            }
        </style>
    </defs>
    <path class="a" d="M0,0H20V20H0Z" />
    <path class="b"
        d="M17.833,3a.833.833,0,0,1,.833.833V9.667H17v-5H3.667V16.333h5V18H2.833A.833.833,0,0,1,2,17.167V3.833A.833.833,0,0,1,2.833,3Zm0,8.333a.833.833,0,0,1,.833.833v5a.833.833,0,0,1-.833.833H11.167a.833.833,0,0,1-.833-.833v-5a.833.833,0,0,1,.833-.833ZM17,13H12v3.333h5Z"
        transform="translate(-0.333 -0.5)" />
</svg>
